<svg width="32" height="32" viewBox="0 0 32 32" fill="none" xmlns="http://www.w3.org/2000/svg">
<mask id="mask0_1_66" style="mask-type:luminance" maskUnits="userSpaceOnUse" x="0" y="0" width="32" height="33">
<path d="M32 32.0002H0V-8.79129e-06H32V32.0002Z" fill="white"/>
</mask>
<g mask="url(#mask0_1_66)">
<path d="M32 32.0002H0V-8.79129e-06H32V32.0002Z" fill="url(#paint0_radial_1_66)"/>
</g>
<path d="M1.10767 16.6503V16.7492C1.10767 17.0639 1.19656 17.2665 1.55209 17.2665C1.75811 17.2665 1.95462 17.135 1.95462 16.853C1.95462 16.5465 1.8 16.4338 1.35572 16.2783C0.756544 16.0717 0.480247 15.8225 0.480247 15.2626C0.480247 14.6081 0.877812 14.2748 1.51447 14.2748C2.11364 14.2748 2.54868 14.5332 2.54868 15.1778V15.2718H1.90294C1.90294 14.9569 1.79531 14.7731 1.53803 14.7731C1.23376 14.7731 1.15425 14.966 1.15425 15.1636C1.15425 15.3707 1.21516 15.4978 1.50041 15.6198L2.02007 15.8464C2.52501 16.0669 2.65617 16.3253 2.65617 16.735C2.65617 17.4457 2.22568 17.7654 1.49614 17.7654C0.733254 17.7654 0.433807 17.4076 0.433807 16.7871V16.6503H1.10767Z" fill="#133E28"/>
<path d="M4.26767 15.4745C4.26767 14.9849 4.16956 14.7731 3.86529 14.7731C3.52394 14.7731 3.44414 15.1168 3.44414 16.0669C3.44414 17.0834 3.58458 17.2665 3.87439 17.2665C4.11802 17.2665 4.29564 17.1397 4.29564 16.4153H4.96977C4.96977 17.1397 4.792 17.7654 3.90716 17.7654C2.8968 17.7654 2.77044 17.0405 2.77044 16.0198C2.77044 14.9991 2.8968 14.2748 3.90716 14.2748C4.8711 14.2748 4.94155 14.9849 4.94155 15.4745H4.26767Z" fill="#133E28"/>
<path d="M5.14203 14.3402H5.81577V15.625H6.6018V14.3402H7.27579V17.6995H6.6018V16.2083H5.81577V17.6995H5.14203V14.3402Z" fill="#133E28"/>
<path d="M7.39485 14.3402H8.04047L8.41008 16.8243H8.41943L8.81246 14.3402H9.45808L9.85083 16.8243H9.86046L10.2298 14.3402H10.8758L10.2677 17.6995H9.51417L9.1403 15.2626H9.13091L8.75637 17.6995H8.00286L7.39485 14.3402Z" fill="#133E28"/>
<path d="M12.8747 14.3402V14.8957H11.6814V15.6859H12.8044V16.241H11.6814V17.1444H12.9217V17.6995H11.0074V14.3402H12.8747Z" fill="#133E28"/>
<path d="M13.1001 17.6995V14.3402H13.7734V17.6995H13.1001Z" fill="#133E28"/>
<path d="M13.8948 17.2055L15.1251 14.8957H13.9789V14.3402H15.9018V14.8536L14.6525 17.1444H15.9203V17.6995H13.8948V17.2055Z" fill="#133E28"/>
<path d="M17.9599 14.3402V14.8957H16.7668V15.6859H17.8899V16.241H16.7668V17.1444H18.0071V17.6995H16.0928V14.3402H17.9599Z" fill="#133E28"/>
<path d="M18.8337 15.8085H19.1146C19.4371 15.8085 19.6197 15.6672 19.6197 15.3049C19.6197 14.994 19.4565 14.8389 19.1514 14.8389H18.8337V15.8085ZM18.16 14.3402H19.4048C19.9565 14.3402 20.2936 14.6321 20.2936 15.2063C20.2936 15.6528 20.1157 15.9546 19.7368 16.0338V16.0439C20.1952 16.1048 20.2658 16.3584 20.275 17.0692C20.2795 17.422 20.2982 17.6055 20.4246 17.671V17.6995H19.6949C19.6289 17.6055 19.6154 17.4787 19.6107 17.3467L19.5915 16.7017C19.5824 16.4389 19.4655 16.2783 19.1941 16.2783H18.8337V17.6995H18.16V14.3402Z" fill="#133E28"/>
<path d="M21.2342 15.8434H21.5281C21.7895 15.8434 21.968 15.6873 21.968 15.3523C21.968 15.0312 21.8394 14.8479 21.5098 14.8479H21.2342V15.8434ZM20.5738 14.3616H21.7292C22.3998 14.3616 22.6283 14.8526 22.6283 15.343C22.6283 16.0218 22.2116 16.3293 21.5876 16.3293H21.2342V17.6365H20.5738V14.3616Z" fill="white"/>
<path d="M25.4997 15.7932H25.7752C26.0921 15.7932 26.2702 15.6547 26.2702 15.3021C26.2702 14.9991 26.1102 14.8479 25.8125 14.8479H25.4997V15.7932ZM24.8391 14.3616H26.0598C26.601 14.3616 26.9307 14.646 26.9307 15.2056C26.9307 15.6418 26.7564 15.9346 26.3859 16.0126V16.0218C26.8345 16.0821 26.9039 16.3293 26.913 17.0218C26.9178 17.3659 26.9359 17.5449 27.0589 17.609V17.6365H26.3445C26.2792 17.5449 26.2661 17.421 26.2614 17.2928L26.2431 16.6641C26.2343 16.4073 26.1192 16.2513 25.8537 16.2513H25.4997V17.6365H24.8391V14.3616Z" fill="white"/>
<path d="M27.8769 14.3616V15.6742H27.8867L28.7214 14.3616H29.4369L28.5468 15.765L29.5377 17.6365H28.7948L28.1206 16.2922L27.8769 16.6641V17.6365H27.2163V14.3616H27.8769Z" fill="white"/>
<path d="M31.4598 14.3616V14.903H30.29V15.6742H31.3916V16.2146H30.29V17.0952H31.5059V17.6365H29.6298V14.3616H31.4598Z" fill="white"/>
<path d="M23.1404 16.4022H23.7535L23.4504 15.3186H23.4411L23.1404 16.4022ZM23.0573 14.7492H23.8295L24.721 17.6365H24.0328L23.8625 16.944H23.0322L22.8579 17.6365H22.1702L23.0573 14.7492Z" fill="white"/>
<path d="M23.1696 14.4569H22.7066V13.9935H23.1696V14.4569Z" fill="white"/>
<path d="M24.1802 14.4569H23.7171V13.9935H24.1802V14.4569Z" fill="white"/>
<path d="M15.469 4.50926C14.9918 4.50926 14.7856 4.60627 14.7856 4.90392C14.7856 5.23906 15.1205 5.31663 16.0478 5.31663C17.0387 5.31663 17.2176 5.17954 17.2176 4.89439C17.2176 4.65616 17.0933 4.48167 16.3863 4.48167V3.82145C17.0933 3.82145 17.7036 3.99551 17.7036 4.86257C17.7036 5.85367 16.9974 5.9781 16.0016 5.9781C15.0054 5.9781 14.2993 5.85367 14.2993 4.86257C14.2993 3.91751 14.9918 3.84819 15.469 3.84819V4.50926Z" fill="white"/>
<path d="M15.8452 12.1013V11.8075C15.8452 11.5459 15.6895 11.3665 15.3543 11.3665C15.0337 11.3665 14.8496 11.4954 14.8496 11.8261V12.1013H15.8452ZM14.3635 12.7619V11.6056C14.3635 10.9352 14.8541 10.706 15.3454 10.706C16.0247 10.706 16.3319 11.1233 16.3319 11.7477V12.1013H17.639V12.7619H14.3635Z" fill="white"/>
<path d="M16.4054 10.1029V9.46098L14.9322 9.77764V9.7866L16.4054 10.1029ZM14.3635 10.1904V9.37321L17.639 8.50654V9.19389L16.9465 9.34562V10.2172L17.639 10.3687V11.0572L14.3635 10.1904Z" fill="white"/>
<path d="M15.7953 7.70809V7.4325C15.7953 7.11595 15.657 6.93709 15.304 6.93709C15.0016 6.93709 14.8496 7.09736 14.8496 7.39571V7.70809H15.7953ZM14.3635 8.36888V7.14752C14.3635 6.6065 14.6478 6.27577 15.2078 6.27577C15.6434 6.27577 15.9375 6.44994 16.0152 6.82173H16.0247C16.0839 6.37236 16.3319 6.3036 17.0249 6.29436C17.3686 6.28967 17.5483 6.27189 17.6122 6.14775H17.639V6.86407C17.5483 6.92785 17.4238 6.94164 17.2956 6.94672L16.6666 6.9645C16.4095 6.97332 16.2538 7.0884 16.2538 7.35436V7.70809H17.639V8.36888H14.3635Z" fill="white"/>
<path d="M14.3635 3.65225V2.99189H15.6158V2.22099H14.3635V1.55995H17.639V2.22099H16.1849V2.99189H17.639V3.65225H14.3635Z" fill="white"/>
<path d="M17.639 1.2058H14.3635V0.545288H17.639V1.2058Z" fill="white"/>
<path d="M16.158 20.8853V21.1789C16.158 21.4405 16.3144 21.6191 16.6492 21.6191C16.9708 21.6191 17.1539 21.4909 17.1539 21.1602V20.8853H16.158ZM17.6402 20.2242V21.3807C17.6402 22.0509 17.149 22.2803 16.658 22.2803C15.9795 22.2803 15.6717 21.8624 15.6717 21.2386V20.8853H14.3641V20.2242H17.6402Z" fill="white"/>
<path d="M15.5986 22.9332V23.5756L17.071 23.2597V23.2501L15.5986 22.9332ZM17.6402 22.8461V23.6628L14.3641 24.5307V23.8424L15.057 23.6911V22.8188L14.3641 22.6676V21.9794L17.6402 22.8461Z" fill="white"/>
<path d="M16.209 25.3283V25.6041C16.209 25.9212 16.3465 26.1006 16.6996 26.1006C17.0027 26.1006 17.1539 25.9391 17.1539 25.641V25.3283H16.209ZM17.6402 24.6681V25.8891C17.6402 26.4304 17.3557 26.7611 16.7964 26.7611C16.36 26.7611 16.0668 26.5868 15.9885 26.2147H15.9795C15.919 26.6652 15.6717 26.7329 14.9787 26.7433C14.6344 26.7472 14.4561 26.7652 14.3916 26.8891H14.3641V26.1736C14.4561 26.1096 14.5793 26.0955 14.7083 26.0907L15.337 26.0724C15.5937 26.0634 15.7502 25.9494 15.7502 25.6825V25.3283H14.3641V24.6681H17.6402Z" fill="white"/>
<path d="M16.5349 28.436C17.0117 28.436 17.2184 28.3396 17.2184 28.0409C17.2184 27.706 16.8835 27.6279 15.9565 27.6279C14.9652 27.6279 14.7866 27.7665 14.7866 28.0501C14.7866 28.2882 14.9101 28.4637 15.6166 28.4637V29.1239C14.9101 29.1239 14.2999 28.9494 14.2999 28.0829C14.2999 27.0918 15.0062 26.9677 16.0017 26.9677C16.9979 26.9677 17.7046 27.0918 17.7046 28.0829C17.7046 29.0276 17.0117 29.0963 16.5349 29.0963V28.436Z" fill="white"/>
<path d="M15.3873 29.9408H15.2909C14.9832 29.9408 14.7866 30.0278 14.7866 30.3764C14.7866 30.5787 14.9143 30.7711 15.1899 30.7711C15.4884 30.7711 15.5986 30.6198 15.7502 30.1835C15.9516 29.5966 16.1947 29.3257 16.7413 29.3257C17.3785 29.3257 17.7046 29.7156 17.7046 30.3399C17.7046 30.9272 17.4517 31.354 16.8232 31.354H16.7318V30.7202C17.0393 30.7202 17.2184 30.6151 17.2184 30.3632C17.2184 30.0643 17.03 29.9867 16.8374 29.9867C16.6351 29.9867 16.5117 30.0464 16.3925 30.3262L16.1721 30.8356C15.9565 31.3307 15.7039 31.4597 15.3046 31.4597C14.6116 31.4597 14.2999 31.0372 14.2999 30.3213C14.2999 29.5733 14.6488 29.2796 15.2542 29.2796H15.3873V29.9408Z" fill="white"/>
<defs>
<radialGradient id="paint0_radial_1_66" cx="0" cy="0" r="1" gradientUnits="userSpaceOnUse" gradientTransform="translate(-0.0447196 16.0002) scale(32.071 32.071)">
<stop stop-color="#A6D71C"/>
<stop offset="1" stop-color="#3B9B3E"/>
</radialGradient>
</defs>
</svg>
