<svg width="211" height="129" viewBox="0 0 211 129" fill="none" xmlns="http://www.w3.org/2000/svg">
<mask id="mask0_1_2" style="mask-type:luminance" maskUnits="userSpaceOnUse" x="3" y="3" width="122" height="122">
<path d="M124.859 124.828H3.9151V3.8832H124.859V124.828Z" fill="white"/>
</mask>
<g mask="url(#mask0_1_2)">
<path d="M124.859 124.828H3.9151V3.88321H124.859V124.828Z" fill="url(#paint0_radial_1_2)"/>
</g>
<path d="M8.10155 66.8129V67.1869C8.10155 68.3764 8.4375 69.1421 9.78125 69.1421C10.5599 69.1421 11.3026 68.6452 11.3026 67.5791C11.3026 66.4207 10.7182 65.9947 9.03906 65.4072C6.77447 64.6264 5.73021 63.6843 5.73021 61.5681C5.73021 59.0947 7.23281 57.8348 9.63906 57.8348C11.9036 57.8348 13.5479 58.8113 13.5479 61.2479V61.6031H11.1073C11.1073 60.4129 10.7005 59.7181 9.72811 59.7181C8.57811 59.7181 8.27759 60.4473 8.27759 61.1941C8.27759 61.9769 8.50781 62.4572 9.58593 62.9181L11.55 63.7749C13.4584 64.6083 13.9541 65.5848 13.9541 67.1332C13.9541 69.8192 12.3271 71.0275 9.56978 71.0275C6.68645 71.0275 5.55469 69.6755 5.55469 67.3301V66.8129H8.10155Z" fill="#133E28"/>
<path d="M20.0448 62.3692C20.0448 60.5187 19.674 59.7181 18.524 59.7181C17.2339 59.7181 16.9323 61.0171 16.9323 64.6083C16.9323 68.4499 17.4631 69.1421 18.5584 69.1421C19.4792 69.1421 20.1505 68.6629 20.1505 65.9249H22.6984C22.6984 68.6629 22.0265 71.0275 18.6823 71.0275C14.8636 71.0275 14.386 68.2879 14.386 64.4301C14.386 60.5723 14.8636 57.8348 18.6823 57.8348C22.3255 57.8348 22.5917 60.5187 22.5917 62.3692H20.0448Z" fill="#133E28"/>
<path d="M23.3495 58.0821H25.8959V62.9379H28.8667V58.0821H31.414V70.7785H28.8667V65.1427H25.8959V70.7785H23.3495V58.0821Z" fill="#133E28"/>
<path d="M31.864 58.0821H34.3041L35.7011 67.4707H35.7364L37.2219 58.0821H39.662L41.1464 67.4707H41.1828L42.5787 58.0821H45.0203L42.7219 70.7785H39.874L38.4609 61.5681H38.4255L37.0099 70.7785H34.162L31.864 58.0821Z" fill="#133E28"/>
<path d="M52.5751 58.0821V60.1816H48.0651V63.1681H52.3093V65.266H48.0651V68.6807H52.7527V70.7785H45.5177V58.0821H52.5751Z" fill="#133E28"/>
<path d="M53.4271 70.7785V58.0821H55.9719V70.7785H53.4271Z" fill="#133E28"/>
<path d="M56.4307 68.9113L61.0807 60.1816H56.7484V58.0821H64.0161V60.0223L59.2943 68.6807H64.086V70.7785H56.4307V68.9113Z" fill="#133E28"/>
<path d="M71.7948 58.0821V60.1816H67.2855V63.1681H71.5303V65.266H67.2855V68.6807H71.9729V70.7785H64.738V58.0821H71.7948Z" fill="#133E28"/>
<path d="M75.0973 63.6316H76.1588C77.3776 63.6316 78.0677 63.0973 78.0677 61.728C78.0677 60.5531 77.4511 59.9671 76.2979 59.9671H75.0973V63.6316ZM72.5511 58.0821H77.2557C79.3407 58.0821 80.6151 59.1853 80.6151 61.3556C80.6151 63.0431 79.9427 64.1837 78.5104 64.4832V64.5212C80.2432 64.7515 80.5099 65.7097 80.5448 68.3963C80.5615 69.7296 80.6323 70.4233 81.1099 70.6707V70.7785H78.3521C78.1027 70.4233 78.0516 69.9441 78.0339 69.4452L77.9615 67.0072C77.9271 66.014 77.4849 65.4072 76.4593 65.4072H75.0973V70.7785H72.5511V58.0821Z" fill="#133E28"/>
<path d="M84.1697 63.7635H85.2806C86.2688 63.7635 86.9432 63.1733 86.9432 61.9072C86.9432 60.6936 86.4573 60.0009 85.2115 60.0009H84.1697V63.7635ZM81.674 58.1629H86.0407C88.5755 58.1629 89.4391 60.0187 89.4391 61.8723C89.4391 64.4379 87.864 65.5999 85.5057 65.5999H84.1697V70.5405H81.674V58.1629Z" fill="white"/>
<path d="M100.291 63.5739H101.333C102.53 63.5739 103.204 63.0504 103.204 61.7176C103.204 60.5723 102.599 60.0009 101.473 60.0009H100.291V63.5739ZM97.7948 58.1629H102.408C104.454 58.1629 105.7 59.2379 105.7 61.3531C105.7 63.0015 105.041 64.1083 103.641 64.4031V64.4379C105.336 64.6655 105.598 65.5999 105.633 68.2171C105.651 69.5176 105.719 70.1941 106.184 70.4364V70.5405H103.484C103.237 70.1941 103.188 69.726 103.17 69.2416L103.101 66.8655C103.068 65.8947 102.633 65.3051 101.629 65.3051H100.291V70.5405H97.7948V58.1629Z" fill="white"/>
<path d="M109.276 58.1629V63.1239H109.313L112.468 58.1629H115.172L111.808 63.4671L115.553 70.5405H112.745L110.197 65.4597L109.276 66.8655V70.5405H106.779V58.1629H109.276Z" fill="white"/>
<path d="M122.818 58.1629V60.2093H118.396V63.1239H122.56V65.1665H118.396V68.4947H122.992V70.5405H115.901V58.1629H122.818Z" fill="white"/>
<path d="M91.3745 65.8755H93.6917L92.5459 61.7801H92.5109L91.3745 65.8755ZM91.0604 59.628H93.9787L97.3484 70.5405H94.7473L94.1036 67.9233H90.9656L90.3068 70.5405H87.7073L91.0604 59.628Z" fill="white"/>
<path d="M91.4849 58.5233H89.7349V56.7717H91.4849V58.5233Z" fill="white"/>
<path d="M95.3041 58.5233H93.5541V56.7717H95.3041V58.5233Z" fill="white"/>
<path d="M62.3803 20.926C60.5765 20.926 59.7973 21.2927 59.7973 22.4176C59.7973 23.6843 61.0631 23.9775 64.5677 23.9775C68.3131 23.9775 68.9891 23.4593 68.9891 22.3816C68.9891 21.4812 68.5193 20.8217 65.8473 20.8217V18.3264C68.5193 18.3264 70.826 18.9843 70.826 22.2613C70.826 26.0072 68.1568 26.4775 64.3932 26.4775C60.6281 26.4775 57.9593 26.0072 57.9593 22.2613C57.9593 18.6895 60.5765 18.4275 62.3803 18.4275V20.926Z" fill="white"/>
<path d="M63.8021 49.6203V48.5097C63.8021 47.5212 63.2136 46.8431 61.9469 46.8431C60.7349 46.8431 60.0391 47.3301 60.0391 48.5801V49.6203H63.8021ZM58.2021 52.1171V47.7468C58.2021 45.2129 60.0563 44.3468 61.9131 44.3468C64.4807 44.3468 65.6417 45.9239 65.6417 48.2837V49.6203H70.5817V52.1171H58.2021Z" fill="white"/>
<path d="M65.9193 42.0671V39.6411L60.3516 40.8379V40.8717L65.9193 42.0671ZM58.2021 42.3979V39.3093L70.5817 36.0337V38.6316L67.9645 39.2051V42.4993L70.5817 43.0717V45.6739L58.2021 42.3979Z" fill="white"/>
<path d="M63.6136 33.016V31.9744C63.6136 30.778 63.0907 30.102 61.7568 30.102C60.6136 30.102 60.0391 30.7077 60.0391 31.8353V33.016H63.6136ZM58.2021 35.5135V30.8973C58.2021 28.8525 59.2765 27.6025 61.3932 27.6025C63.0396 27.6025 64.1511 28.2608 64.4448 29.666H64.4807C64.7041 27.9676 65.6417 27.7077 68.2609 27.6728C69.5599 27.6551 70.239 27.5879 70.4806 27.1187H70.5817V29.826C70.239 30.0671 69.7683 30.1192 69.2839 30.1384L66.9068 30.2056C65.9349 30.2389 65.3464 30.6739 65.3464 31.6791V33.016H70.5817V35.5135H58.2021Z" fill="white"/>
<path d="M58.2021 17.6869V15.1911H62.9349V12.2775H58.2021V9.77907H70.5817V12.2775H65.086V15.1911H70.5817V17.6869H58.2021Z" fill="white"/>
<path d="M70.5817 8.44054H58.2021V5.94414H70.5817V8.44054Z" fill="white"/>
<path d="M64.9844 82.8192V83.9291C64.9844 84.9176 65.5755 85.5927 66.8407 85.5927C68.0563 85.5927 68.7484 85.1083 68.7484 83.8583V82.8192H64.9844ZM70.5864 80.3207V84.6916C70.5864 87.2249 68.7297 88.0916 66.874 88.0916C64.3099 88.0916 63.1464 86.5124 63.1464 84.1545V82.8192H58.2041V80.3207H70.5864Z" fill="white"/>
<path d="M62.8703 90.5593V92.9873L68.4349 91.7936V91.7572L62.8703 90.5593ZM70.5864 90.2301V93.3171L58.2041 96.5973V93.9957L60.8229 93.4239V90.1269L58.2041 89.5556V86.9545L70.5864 90.2301Z" fill="white"/>
<path d="M65.1771 99.6119V100.654C65.1771 101.853 65.6969 102.531 67.0312 102.531C68.1771 102.531 68.7484 101.92 68.7484 100.794V99.6119H65.1771ZM70.5864 97.1165V101.731C70.5864 103.777 69.5109 105.027 67.3973 105.027C65.7479 105.027 64.6396 104.368 64.3437 102.962H64.3099C64.0812 104.665 63.1464 104.92 60.5271 104.96C59.226 104.974 58.5521 105.043 58.3084 105.511H58.2041V102.807C58.5521 102.565 59.0177 102.511 59.5052 102.493L61.8812 102.424C62.8516 102.39 63.4432 101.959 63.4432 100.95V99.6119H58.2041V97.1165H70.5864Z" fill="white"/>
<path d="M66.4088 111.357C68.2109 111.357 68.9921 110.993 68.9921 109.864C68.9921 108.598 67.7265 108.303 64.2229 108.303C60.476 108.303 59.8011 108.827 59.8011 109.899C59.8011 110.799 60.2677 111.462 62.938 111.462V113.957C60.2677 113.957 57.9615 113.298 57.9615 110.023C57.9615 106.277 60.6312 105.808 64.3937 105.808C68.1588 105.808 70.8297 106.277 70.8297 110.023C70.8297 113.593 68.2109 113.853 66.4088 113.853V111.357Z" fill="white"/>
<path d="M62.0713 117.045H61.7073C60.5443 117.045 59.8011 117.373 59.8011 118.691C59.8011 119.456 60.2839 120.183 61.3255 120.183C62.4536 120.183 62.8703 119.611 63.4432 117.962C64.2041 115.744 65.1229 114.72 67.1891 114.72C69.5973 114.72 70.8297 116.194 70.8297 118.553C70.8297 120.773 69.874 122.386 67.4984 122.386H67.1531V119.991C68.3151 119.991 68.9921 119.593 68.9921 118.641C68.9921 117.511 68.2803 117.218 67.5521 117.218C66.7875 117.218 66.3213 117.444 65.8708 118.501L65.0375 120.426C64.2229 122.298 63.2683 122.785 61.7588 122.785C59.1396 122.785 57.9615 121.188 57.9615 118.483C57.9615 115.656 59.2803 114.546 61.5683 114.546H62.0713V117.045Z" fill="white"/>
<path d="M135.299 58.0608L138.361 66.666H138.396V58.0608H140.719V70.626H137.833L134.736 61.8264H134.7V70.626H132.378V58.0608H135.299Z" fill="currentColor"/>
<path d="M148.745 58.0608V60.1369H144.257V63.0941H148.481V65.1703H144.257V68.5488H148.92V70.626H141.723V58.0608H148.745Z" fill="currentColor"/>
<path d="M156.788 58.0608V60.1369H154.041V70.626H151.508V60.1369H148.763V58.0608H156.788Z" fill="currentColor"/>
<path d="M156.664 68.778L161.292 60.1369H156.981V58.0608H164.215V59.9785L159.516 68.5488H164.284V70.626H156.664V68.778Z" fill="currentColor"/>
<path d="M164.092 58.0608H166.519L167.909 67.3525H167.945L169.423 58.0608H171.852L173.332 67.3525H173.365L174.756 58.0608H177.185L174.896 70.626H172.063L170.655 61.5097H170.62L169.212 70.626H166.379L164.092 58.0608Z" fill="currentColor"/>
<path d="M184.472 58.0608V60.1369H179.985V63.0941H184.209V65.1703H179.985V68.5488H184.649V70.626H177.451V58.0608H184.472Z" fill="currentColor"/>
<path d="M187.693 63.5509H188.748C189.964 63.5509 190.649 63.0228 190.649 61.6681C190.649 60.5067 190.035 59.926 188.889 59.926H187.693V63.5509ZM185.16 58.0608H189.839C191.917 58.0608 193.183 59.152 193.183 61.2983C193.183 62.9703 192.513 64.0968 191.089 64.3963V64.4312C192.813 64.6597 193.079 65.6103 193.112 68.2676C193.131 69.5873 193.201 70.2739 193.675 70.5203V70.626H190.931C190.685 70.2739 190.631 69.7988 190.615 69.3061L190.545 66.8947C190.508 65.9097 190.068 65.3113 189.048 65.3113H187.693V70.626H185.16V58.0608Z" fill="currentColor"/>
<path d="M196.72 58.0608V63.0941H196.756L199.959 58.0608H202.704L199.289 63.4452L203.092 70.626H200.24L197.652 65.4697L196.72 66.8947V70.626H194.185V58.0608H196.72Z" fill="currentColor"/>
<path d="M134.912 80.8843H135.968C137.181 80.8843 137.868 80.3561 137.868 79.0015C137.868 77.84 137.252 77.2593 136.108 77.2593H134.912V80.8843ZM132.378 75.3941H137.059C139.136 75.3941 140.403 76.4853 140.403 78.6316C140.403 80.3036 139.733 81.4301 138.308 81.7296V81.7645C140.032 81.9931 140.297 82.9436 140.332 85.6009C140.349 86.9207 140.42 87.6072 140.895 87.8536V87.9593H138.149C137.903 87.6072 137.851 87.1321 137.833 86.6395L137.763 84.228C137.727 83.2431 137.287 82.6447 136.267 82.6447H134.912V87.9593H132.378V75.3941Z" fill="currentColor"/>
<path d="M148.428 75.3941V77.4703H143.941V80.4275H148.165V82.5036H143.941V85.8821H148.604V87.9593H141.407V75.3941H148.428Z" fill="currentColor"/>
<path d="M151.156 84.0348V84.4045C151.156 85.5832 151.491 86.34 152.828 86.34C153.603 86.34 154.341 85.8473 154.341 84.7911C154.341 83.6473 153.76 83.2255 152.088 82.6447C149.836 81.8703 148.799 80.9379 148.799 78.8431C148.799 76.3968 150.295 75.1473 152.688 75.1473C154.94 75.1473 156.577 76.1155 156.577 78.5264V78.8785H154.148C154.148 77.6993 153.744 77.0135 152.776 77.0135C151.632 77.0135 151.332 77.7348 151.332 78.4733C151.332 79.2483 151.561 79.7228 152.635 80.1807L154.588 81.0255C156.488 81.8525 156.981 82.8207 156.981 84.352C156.981 87.0088 155.361 88.2051 152.617 88.2051C149.749 88.2051 148.623 86.8681 148.623 84.5452V84.0348H151.156Z" fill="currentColor"/>
<path d="M164.513 75.3941V77.4703H160.027V80.4275H164.251V82.5036H160.027V85.8821H164.691V87.9593H157.492V75.3941H164.513Z" fill="currentColor"/>
<path d="M167.98 83.2255H170.444L169.229 77.5764H169.196L167.98 83.2255ZM167.647 75.3941H170.779L174.105 87.9593H171.464L170.884 85.3015H167.54L166.959 87.9593H164.321L167.647 75.3941Z" fill="currentColor"/>
<path d="M176.605 75.3941V84.1577C176.605 85.4072 176.904 86.34 178.084 86.34C179.261 86.34 179.56 85.4072 179.56 84.1577V75.3941H182.095V84.1577C182.095 87.3608 180.141 88.2051 178.084 88.2051C176.024 88.2051 174.071 87.5192 174.071 84.1577V75.3941H176.605Z" fill="currentColor"/>
<path d="M134.912 98.2176H135.968C137.181 98.2176 137.868 97.6895 137.868 96.3348C137.868 95.1733 137.252 94.5927 136.108 94.5927H134.912V98.2176ZM132.378 92.7275H137.059C139.136 92.7275 140.403 93.8187 140.403 95.9649C140.403 97.6369 139.733 98.7635 138.308 99.0629V99.0979C140.032 99.3264 140.297 100.277 140.332 102.934C140.349 104.254 140.42 104.941 140.895 105.187V105.293H138.149C137.903 104.941 137.851 104.465 137.833 103.973L137.763 101.561C137.727 100.576 137.287 99.978 136.267 99.978H134.912V105.293H132.378V92.7275Z" fill="currentColor"/>
<path d="M148.428 92.7275V94.8036H143.941V97.7608H148.165V99.8369H143.941V103.215H148.604V105.293H141.407V92.7275H148.428Z" fill="currentColor"/>
<path d="M156.472 92.7275V94.8036H153.725V105.293H151.192V94.8036H148.445V92.7275H156.472Z" fill="currentColor"/>
<path d="M163.829 92.7275V94.8036H159.339V97.7608H163.563V99.8369H159.339V103.215H164.003V105.293H156.805V92.7275H163.829Z" fill="currentColor"/>
<path d="M134.912 115.551H135.968C137.181 115.551 137.868 115.023 137.868 113.668C137.868 112.507 137.252 111.926 136.108 111.926H134.912V115.551ZM132.378 110.061H137.059C139.136 110.061 140.403 111.152 140.403 113.298C140.403 114.97 139.733 116.097 138.308 116.396V116.431C140.032 116.66 140.297 117.61 140.332 120.268C140.349 121.587 140.42 122.274 140.895 122.52V122.626H138.149C137.903 122.274 137.851 121.799 137.833 121.306L137.763 118.895C137.727 117.91 137.287 117.311 136.267 117.311H134.912V122.626H132.378V110.061Z" fill="currentColor"/>
<path d="M144.188 117.892H146.651L145.437 112.243H145.401L144.188 117.892ZM143.853 110.061H146.985L150.311 122.626H147.672L147.091 119.968H143.748L143.167 122.626H140.527L143.853 110.061Z" fill="currentColor"/>
<path d="M150.559 122.626V110.061H153.092V122.626H150.559Z" fill="currentColor"/>
<path d="M161.573 110.061V112.137H158.829V122.626H156.296V112.137H153.549V110.061H161.573Z" fill="currentColor"/>
<defs>
<radialGradient id="paint0_radial_1_2" cx="0" cy="0" r="1" gradientUnits="userSpaceOnUse" gradientTransform="translate(3.74608 64.3563) scale(121.213 121.213)">
<stop stop-color="#A6D71C"/>
<stop offset="1" stop-color="#3B9B3E"/>
</radialGradient>
</defs>
</svg>
